<svg xmlns="http://www.w3.org/2000/svg" xmlns:xlink="http://www.w3.org/1999/xlink" width="500" zoomAndPan="magnify" viewBox="0 0 375 149.999998" height="200" preserveAspectRatio="xMidYMid meet" version="1.0"><defs><g/><clipPath id="27cd2dd50b"><path d="M 143.761719 5.214844 L 231.511719 5.214844 L 231.511719 92.964844 L 143.761719 92.964844 Z M 143.761719 5.214844 " clip-rule="nonzero"/></clipPath></defs><path fill="#ac2b37" d="M 187.234375 54.847656 C 187.042969 54.914062 186.921875 55.089844 186.921875 55.277344 C 186.921875 55.324219 186.929688 55.371094 186.945312 55.417969 C 186.953125 55.4375 187.449219 57.015625 187.449219 59.300781 C 187.449219 60.128906 187.382812 61.050781 187.207031 62.019531 C 187.203125 62.046875 187.199219 62.074219 187.199219 62.101562 C 187.199219 62.316406 187.351562 62.503906 187.570312 62.542969 C 187.597656 62.550781 187.625 62.550781 187.648438 62.550781 C 187.863281 62.550781 188.050781 62.398438 188.089844 62.183594 C 188.28125 61.140625 188.351562 60.15625 188.351562 59.277344 C 188.351562 56.875 187.828125 55.230469 187.800781 55.140625 C 187.722656 54.902344 187.46875 54.773438 187.234375 54.847656 " fill-opacity="1" fill-rule="nonzero"/><path fill="#ac2b37" d="M 185.878906 57.445312 C 185.632812 57.46875 185.449219 57.6875 185.472656 57.933594 C 185.605469 59.285156 185.535156 60.628906 185.265625 61.929688 C 185.214844 62.171875 185.371094 62.410156 185.617188 62.460938 C 185.648438 62.46875 185.675781 62.46875 185.707031 62.46875 C 185.917969 62.46875 186.105469 62.324219 186.148438 62.113281 C 186.433594 60.722656 186.507812 59.289062 186.371094 57.847656 C 186.347656 57.601562 186.128906 57.425781 185.878906 57.445312 " fill-opacity="1" fill-rule="nonzero"/><path fill="#ac2b37" d="M 186.183594 52.121094 C 186.320312 52.066406 186.4375 51.96875 186.496094 51.832031 C 186.621094 51.5625 186.476562 51.40625 186.320312 51.316406 C 186.179688 51.234375 186.007812 51.222656 185.855469 51.28125 C 184.859375 51.660156 184.046875 52.382812 183.5625 53.34375 C 183.042969 54.363281 182.953125 55.511719 183.300781 56.578125 C 183.328125 56.664062 183.953125 58.75 183.425781 61.410156 C 183.378906 61.65625 183.539062 61.890625 183.78125 61.941406 C 183.8125 61.945312 183.839844 61.949219 183.871094 61.949219 C 184.078125 61.949219 184.269531 61.800781 184.308594 61.585938 C 184.871094 58.753906 184.234375 56.554688 184.15625 56.304688 C 183.882812 55.460938 183.957031 54.554688 184.363281 53.75 C 184.746094 52.996094 185.382812 52.425781 186.183594 52.121094 " fill-opacity="1" fill-rule="nonzero"/><path fill="#ac2b37" d="M 181.285156 50.621094 C 181.078125 50.480469 180.800781 50.539062 180.660156 50.742188 C 180.472656 51.019531 180.300781 51.3125 180.148438 51.613281 C 179.171875 53.542969 178.992188 55.703125 179.640625 57.6875 C 179.640625 57.691406 179.726562 57.976562 179.78125 58.441406 C 179.804688 58.671875 180 58.839844 180.226562 58.839844 C 180.242188 58.839844 180.261719 58.839844 180.277344 58.835938 C 180.523438 58.808594 180.703125 58.585938 180.671875 58.339844 C 180.613281 57.804688 180.515625 57.46875 180.5 57.421875 C 179.921875 55.652344 180.082031 53.734375 180.953125 52.019531 C 181.089844 51.75 181.242188 51.492188 181.40625 51.246094 C 181.546875 51.039062 181.492188 50.757812 181.285156 50.621094 " fill-opacity="1" fill-rule="nonzero"/><path fill="#ac2b37" d="M 188.441406 53.171875 C 187.878906 52.886719 187.238281 52.835938 186.640625 53.03125 C 185.5 53.402344 184.820312 54.570312 185.054688 55.742188 C 185.105469 55.984375 185.34375 56.144531 185.585938 56.09375 C 185.828125 56.046875 185.988281 55.808594 185.9375 55.566406 C 185.792969 54.839844 186.214844 54.117188 186.917969 53.886719 C 187.289062 53.765625 187.683594 53.796875 188.035156 53.972656 C 188.382812 54.152344 188.640625 54.453125 188.761719 54.824219 C 189.0625 55.734375 189.699219 58.222656 189.210938 61.609375 C 189.175781 61.855469 189.347656 62.085938 189.59375 62.121094 C 189.613281 62.125 189.636719 62.125 189.65625 62.125 C 189.878906 62.125 190.070312 61.964844 190.101562 61.738281 C 190.617188 58.164062 189.933594 55.515625 189.617188 54.542969 C 189.421875 53.945312 189.003906 53.457031 188.441406 53.171875 " fill-opacity="1" fill-rule="nonzero"/><path fill="#ac2b37" d="M 185.730469 50.25 C 186.371094 50.042969 187.027344 49.957031 187.703125 50 C 188.8125 50.070312 189.851562 50.472656 190.707031 51.164062 C 190.898438 51.324219 191.183594 51.292969 191.339844 51.101562 C 191.496094 50.90625 191.464844 50.625 191.273438 50.46875 C 190.273438 49.65625 189.058594 49.183594 187.757812 49.101562 C 186.976562 49.054688 186.199219 49.152344 185.449219 49.398438 C 183.878906 49.910156 182.601562 51.003906 181.855469 52.476562 C 181.109375 53.949219 180.972656 55.609375 181.472656 57.136719 C 181.488281 57.195312 181.894531 58.554688 181.660156 60.398438 C 181.628906 60.644531 181.800781 60.871094 182.046875 60.902344 C 182.066406 60.902344 182.085938 60.90625 182.105469 60.90625 C 182.328125 60.90625 182.523438 60.738281 182.550781 60.511719 C 182.804688 58.515625 182.382812 57.039062 182.328125 56.867188 C 181.902344 55.558594 182.019531 54.144531 182.65625 52.882812 C 183.296875 51.625 184.386719 50.691406 185.730469 50.25 " fill-opacity="1" fill-rule="nonzero"/><path fill="#ac2b37" d="M 187.878906 47.195312 C 186.851562 47.128906 185.835938 47.257812 184.859375 47.578125 C 183.71875 47.949219 182.703125 48.546875 181.839844 49.355469 C 181.660156 49.527344 181.648438 49.8125 181.820312 49.992188 C 181.988281 50.175781 182.273438 50.183594 182.457031 50.011719 C 183.222656 49.296875 184.125 48.765625 185.136719 48.433594 C 186.007812 48.148438 186.910156 48.035156 187.820312 48.09375 C 190.785156 48.277344 193.296875 50.222656 194.214844 53.042969 C 194.34375 53.429688 194.464844 53.867188 194.574219 54.34375 C 194.621094 54.550781 194.804688 54.691406 195.011719 54.691406 C 195.042969 54.691406 195.078125 54.6875 195.113281 54.679688 C 195.355469 54.621094 195.503906 54.382812 195.449219 54.140625 C 195.332031 53.640625 195.207031 53.179688 195.070312 52.765625 C 194.035156 49.589844 191.210938 47.402344 187.878906 47.195312 " fill-opacity="1" fill-rule="nonzero"/><path fill="#ac2b37" d="M 187.253906 64.085938 C 182.144531 64.085938 178 59.941406 178 54.828125 C 178 49.71875 182.144531 45.574219 187.253906 45.574219 C 192.367188 45.574219 196.507812 49.71875 196.507812 54.828125 C 196.507812 59.941406 192.367188 64.085938 187.253906 64.085938 Z M 187.253906 44.601562 C 181.605469 44.601562 177.027344 49.179688 177.027344 54.828125 C 177.027344 60.480469 181.605469 65.058594 187.253906 65.058594 C 192.902344 65.058594 197.484375 60.480469 197.484375 54.828125 C 197.484375 49.179688 192.902344 44.601562 187.253906 44.601562 " fill-opacity="1" fill-rule="nonzero"/><path fill="#ac2b37" d="M 187.800781 51.023438 C 187.550781 51.003906 187.335938 51.179688 187.308594 51.425781 C 187.285156 51.671875 187.464844 51.894531 187.710938 51.917969 C 189.039062 52.050781 190.164062 52.960938 190.582031 54.230469 C 191.164062 56.019531 191.402344 58.332031 191.234375 60.582031 C 191.21875 60.828125 191.402344 61.046875 191.652344 61.0625 L 191.683594 61.066406 C 191.917969 61.066406 192.113281 60.886719 192.132812 60.648438 C 192.308594 58.285156 192.054688 55.847656 191.433594 53.949219 C 190.910156 52.339844 189.484375 51.191406 187.800781 51.023438 " fill-opacity="1" fill-rule="nonzero"/><path fill="#ac2b37" d="M 192.347656 51.589844 C 192.199219 51.390625 191.917969 51.347656 191.71875 51.496094 C 191.515625 51.644531 191.472656 51.925781 191.621094 52.125 C 191.957031 52.582031 192.21875 53.089844 192.398438 53.636719 C 192.863281 55.054688 193.140625 56.828125 193.183594 58.628906 C 193.191406 58.875 193.390625 59.066406 193.636719 59.066406 L 193.648438 59.066406 C 193.894531 59.0625 194.089844 58.855469 194.085938 58.605469 C 194.039062 56.722656 193.742188 54.855469 193.253906 53.359375 C 193.046875 52.71875 192.738281 52.125 192.347656 51.589844 " fill-opacity="1" fill-rule="nonzero"/><g clip-path="url(#27cd2dd50b)"><path fill="#ac2b37" d="M 206.320312 65.445312 C 206.320312 67.871094 204.351562 69.839844 201.921875 69.839844 L 175.164062 69.839844 C 175.101562 69.851562 175.035156 69.859375 174.96875 69.859375 L 158.882812 69.859375 C 158.121094 69.859375 157.503906 69.230469 157.515625 68.464844 C 157.53125 67.714844 158.175781 67.125 158.929688 67.125 L 173.019531 67.125 C 173.769531 67.125 174.414062 66.535156 174.429688 65.785156 C 174.441406 65.019531 173.828125 64.394531 173.0625 64.394531 L 165.4375 64.394531 C 164.675781 64.394531 164.058594 63.769531 164.070312 63 C 164.085938 62.25 164.730469 61.660156 165.484375 61.660156 L 169.992188 61.660156 C 170.746094 61.660156 171.390625 61.070312 171.402344 60.320312 C 171.417969 59.554688 170.800781 58.929688 170.039062 58.929688 L 157.035156 58.929688 C 156.269531 58.929688 155.652344 58.304688 155.667969 57.535156 C 155.679688 56.785156 156.328125 56.195312 157.078125 56.195312 L 174.070312 56.195312 C 174.835938 56.195312 175.453125 55.570312 175.4375 54.804688 C 175.425781 54.050781 174.777344 53.464844 174.027344 53.464844 L 162.019531 53.464844 C 161.257812 53.464844 160.640625 52.839844 160.652344 52.070312 C 160.667969 51.320312 161.3125 50.730469 162.066406 50.730469 L 166.46875 50.730469 C 167.417969 50.730469 168.1875 49.960938 168.1875 49.011719 L 168.1875 44.214844 C 168.1875 41.785156 170.15625 39.816406 172.585938 39.816406 L 201.921875 39.816406 C 204.351562 39.816406 206.320312 41.789062 206.320312 44.214844 Z M 152.472656 52.097656 C 152.472656 51.34375 153.085938 50.730469 153.839844 50.730469 L 156.148438 50.730469 C 156.90625 50.730469 157.515625 51.34375 157.515625 52.097656 C 157.515625 52.851562 156.90625 53.464844 156.148438 53.464844 L 153.839844 53.464844 C 153.085938 53.464844 152.472656 52.851562 152.472656 52.097656 Z M 173.683594 32.503906 C 173.683594 25.804688 179.132812 20.355469 185.828125 20.355469 L 188.679688 20.355469 C 195.378906 20.355469 200.824219 25.804688 200.824219 32.503906 L 200.824219 39.105469 L 196.558594 39.105469 L 196.558594 32.503906 C 196.558594 28.160156 193.023438 24.625 188.679688 24.625 L 185.828125 24.625 C 181.484375 24.625 177.953125 28.160156 177.953125 32.503906 L 177.953125 39.105469 L 173.683594 39.105469 Z M 187.636719 5.214844 C 163.40625 5.214844 143.761719 24.859375 143.761719 49.089844 C 143.761719 73.324219 163.40625 92.96875 187.636719 92.96875 C 211.871094 92.96875 231.515625 73.324219 231.515625 49.089844 C 231.515625 24.859375 211.871094 5.214844 187.636719 5.214844 " fill-opacity="1" fill-rule="nonzero"/></g><g fill="#737373" fill-opacity="1"><g transform="translate(83.061377, 123.853663)"><g><path d="M 8.5 -23.734375 L 14.609375 -6.515625 L 20.65625 -23.734375 L 27.078125 -23.734375 L 27.078125 0 L 22.171875 0 L 22.171875 -6.484375 L 22.671875 -17.6875 L 16.265625 0 L 12.90625 0 L 6.515625 -17.671875 L 7 -6.484375 L 7 0 L 2.125 0 L 2.125 -23.734375 Z M 8.5 -23.734375 "/></g></g></g><g fill="#737373" fill-opacity="1"><g transform="translate(115.457081, 123.853663)"><g><path d="M 15.515625 -4.890625 L 6.9375 -4.890625 L 5.3125 0 L 0.109375 0 L 8.953125 -23.734375 L 13.484375 -23.734375 L 22.359375 0 L 17.15625 0 Z M 8.265625 -8.84375 L 14.1875 -8.84375 L 11.21875 -17.734375 Z M 8.265625 -8.84375 "/></g></g></g><g fill="#737373" fill-opacity="1"><g transform="translate(141.075869, 123.853663)"><g><path d="M 8.5 -23.734375 L 14.609375 -6.515625 L 20.65625 -23.734375 L 27.078125 -23.734375 L 27.078125 0 L 22.171875 0 L 22.171875 -6.484375 L 22.671875 -17.6875 L 16.265625 0 L 12.90625 0 L 6.515625 -17.671875 L 7 -6.484375 L 7 0 L 2.125 0 L 2.125 -23.734375 Z M 8.5 -23.734375 "/></g></g></g><g fill="#737373" fill-opacity="1"><g transform="translate(173.471574, 123.853663)"><g><path d="M 14.421875 -6.21875 C 14.421875 -7.144531 14.09375 -7.851562 13.4375 -8.34375 C 12.789062 -8.84375 11.617188 -9.363281 9.921875 -9.90625 C 8.222656 -10.457031 6.882812 -11 5.90625 -11.53125 C 3.207031 -12.988281 1.859375 -14.953125 1.859375 -17.421875 C 1.859375 -18.703125 2.21875 -19.84375 2.9375 -20.84375 C 3.664062 -21.851562 4.703125 -22.640625 6.046875 -23.203125 C 7.398438 -23.765625 8.921875 -24.046875 10.609375 -24.046875 C 12.304688 -24.046875 13.816406 -23.738281 15.140625 -23.125 C 16.460938 -22.519531 17.488281 -21.65625 18.21875 -20.53125 C 18.957031 -19.414062 19.328125 -18.144531 19.328125 -16.71875 L 14.4375 -16.71875 C 14.4375 -17.800781 14.09375 -18.644531 13.40625 -19.25 C 12.726562 -19.851562 11.769531 -20.15625 10.53125 -20.15625 C 9.332031 -20.15625 8.398438 -19.898438 7.734375 -19.390625 C 7.078125 -18.890625 6.75 -18.226562 6.75 -17.40625 C 6.75 -16.632812 7.132812 -15.988281 7.90625 -15.46875 C 8.6875 -14.945312 9.832031 -14.457031 11.34375 -14 C 14.125 -13.164062 16.148438 -12.128906 17.421875 -10.890625 C 18.691406 -9.648438 19.328125 -8.109375 19.328125 -6.265625 C 19.328125 -4.203125 18.550781 -2.585938 17 -1.421875 C 15.445312 -0.253906 13.351562 0.328125 10.71875 0.328125 C 8.894531 0.328125 7.234375 -0.00390625 5.734375 -0.671875 C 4.234375 -1.335938 3.085938 -2.253906 2.296875 -3.421875 C 1.515625 -4.585938 1.125 -5.9375 1.125 -7.46875 L 6.03125 -7.46875 C 6.03125 -4.84375 7.59375 -3.53125 10.71875 -3.53125 C 11.882812 -3.53125 12.789062 -3.765625 13.4375 -4.234375 C 14.09375 -4.710938 14.421875 -5.375 14.421875 -6.21875 Z M 14.421875 -6.21875 "/></g></g></g><g fill="#737373" fill-opacity="1"><g transform="translate(197.151778, 123.853663)"><g/></g></g><g fill="#737373" fill-opacity="1"><g transform="translate(208.63027, 123.853663)"><g><path d="M 14.421875 -6.21875 C 14.421875 -7.144531 14.09375 -7.851562 13.4375 -8.34375 C 12.789062 -8.84375 11.617188 -9.363281 9.921875 -9.90625 C 8.222656 -10.457031 6.882812 -11 5.90625 -11.53125 C 3.207031 -12.988281 1.859375 -14.953125 1.859375 -17.421875 C 1.859375 -18.703125 2.21875 -19.84375 2.9375 -20.84375 C 3.664062 -21.851562 4.703125 -22.640625 6.046875 -23.203125 C 7.398438 -23.765625 8.921875 -24.046875 10.609375 -24.046875 C 12.304688 -24.046875 13.816406 -23.738281 15.140625 -23.125 C 16.460938 -22.519531 17.488281 -21.65625 18.21875 -20.53125 C 18.957031 -19.414062 19.328125 -18.144531 19.328125 -16.71875 L 14.4375 -16.71875 C 14.4375 -17.800781 14.09375 -18.644531 13.40625 -19.25 C 12.726562 -19.851562 11.769531 -20.15625 10.53125 -20.15625 C 9.332031 -20.15625 8.398438 -19.898438 7.734375 -19.390625 C 7.078125 -18.890625 6.75 -18.226562 6.75 -17.40625 C 6.75 -16.632812 7.132812 -15.988281 7.90625 -15.46875 C 8.6875 -14.945312 9.832031 -14.457031 11.34375 -14 C 14.125 -13.164062 16.148438 -12.128906 17.421875 -10.890625 C 18.691406 -9.648438 19.328125 -8.109375 19.328125 -6.265625 C 19.328125 -4.203125 18.550781 -2.585938 17 -1.421875 C 15.445312 -0.253906 13.351562 0.328125 10.71875 0.328125 C 8.894531 0.328125 7.234375 -0.00390625 5.734375 -0.671875 C 4.234375 -1.335938 3.085938 -2.253906 2.296875 -3.421875 C 1.515625 -4.585938 1.125 -5.9375 1.125 -7.46875 L 6.03125 -7.46875 C 6.03125 -4.84375 7.59375 -3.53125 10.71875 -3.53125 C 11.882812 -3.53125 12.789062 -3.765625 13.4375 -4.234375 C 14.09375 -4.710938 14.421875 -5.375 14.421875 -6.21875 Z M 14.421875 -6.21875 "/></g></g></g><g fill="#737373" fill-opacity="1"><g transform="translate(232.310475, 123.853663)"><g><path d="M 7.3125 0 L 2.421875 0 L 2.421875 -23.734375 L 7.3125 -23.734375 Z M 7.3125 0 "/></g></g></g><g fill="#737373" fill-opacity="1"><g transform="translate(245.206261, 123.853663)"><g><path d="M 14.421875 -6.21875 C 14.421875 -7.144531 14.09375 -7.851562 13.4375 -8.34375 C 12.789062 -8.84375 11.617188 -9.363281 9.921875 -9.90625 C 8.222656 -10.457031 6.882812 -11 5.90625 -11.53125 C 3.207031 -12.988281 1.859375 -14.953125 1.859375 -17.421875 C 1.859375 -18.703125 2.21875 -19.84375 2.9375 -20.84375 C 3.664062 -21.851562 4.703125 -22.640625 6.046875 -23.203125 C 7.398438 -23.765625 8.921875 -24.046875 10.609375 -24.046875 C 12.304688 -24.046875 13.816406 -23.738281 15.140625 -23.125 C 16.460938 -22.519531 17.488281 -21.65625 18.21875 -20.53125 C 18.957031 -19.414062 19.328125 -18.144531 19.328125 -16.71875 L 14.4375 -16.71875 C 14.4375 -17.800781 14.09375 -18.644531 13.40625 -19.25 C 12.726562 -19.851562 11.769531 -20.15625 10.53125 -20.15625 C 9.332031 -20.15625 8.398438 -19.898438 7.734375 -19.390625 C 7.078125 -18.890625 6.75 -18.226562 6.75 -17.40625 C 6.75 -16.632812 7.132812 -15.988281 7.90625 -15.46875 C 8.6875 -14.945312 9.832031 -14.457031 11.34375 -14 C 14.125 -13.164062 16.148438 -12.128906 17.421875 -10.890625 C 18.691406 -9.648438 19.328125 -8.109375 19.328125 -6.265625 C 19.328125 -4.203125 18.550781 -2.585938 17 -1.421875 C 15.445312 -0.253906 13.351562 0.328125 10.71875 0.328125 C 8.894531 0.328125 7.234375 -0.00390625 5.734375 -0.671875 C 4.234375 -1.335938 3.085938 -2.253906 2.296875 -3.421875 C 1.515625 -4.585938 1.125 -5.9375 1.125 -7.46875 L 6.03125 -7.46875 C 6.03125 -4.84375 7.59375 -3.53125 10.71875 -3.53125 C 11.882812 -3.53125 12.789062 -3.765625 13.4375 -4.234375 C 14.09375 -4.710938 14.421875 -5.375 14.421875 -6.21875 Z M 14.421875 -6.21875 "/></g></g></g><g fill="#737373" fill-opacity="1"><g transform="translate(268.886465, 123.853663)"><g><path d="M 21.609375 -11.328125 C 21.609375 -8.992188 21.191406 -6.945312 20.359375 -5.1875 C 19.535156 -3.425781 18.351562 -2.066406 16.8125 -1.109375 C 15.28125 -0.148438 13.519531 0.328125 11.53125 0.328125 C 9.570312 0.328125 7.816406 -0.144531 6.265625 -1.09375 C 4.722656 -2.039062 3.53125 -3.390625 2.6875 -5.140625 C 1.84375 -6.890625 1.414062 -8.910156 1.40625 -11.203125 L 1.40625 -12.375 C 1.40625 -14.707031 1.820312 -16.757812 2.65625 -18.53125 C 3.5 -20.3125 4.691406 -21.675781 6.234375 -22.625 C 7.773438 -23.570312 9.53125 -24.046875 11.5 -24.046875 C 13.476562 -24.046875 15.234375 -23.570312 16.765625 -22.625 C 18.304688 -21.675781 19.5 -20.3125 20.34375 -18.53125 C 21.1875 -16.757812 21.609375 -14.710938 21.609375 -12.390625 Z M 16.65625 -12.40625 C 16.65625 -14.894531 16.207031 -16.785156 15.3125 -18.078125 C 14.425781 -19.367188 13.15625 -20.015625 11.5 -20.015625 C 9.863281 -20.015625 8.597656 -19.375 7.703125 -18.09375 C 6.816406 -16.820312 6.367188 -14.953125 6.359375 -12.484375 L 6.359375 -11.328125 C 6.359375 -8.898438 6.800781 -7.019531 7.6875 -5.6875 C 8.582031 -4.351562 9.863281 -3.6875 11.53125 -3.6875 C 13.175781 -3.6875 14.4375 -4.328125 15.3125 -5.609375 C 16.195312 -6.898438 16.644531 -8.78125 16.65625 -11.25 Z M 16.65625 -12.40625 "/></g></g></g><g fill="#737373" fill-opacity="1"><g transform="translate(79.682464, 137.999994)"><g><path d="M 7.035156 -0.308594 L 4.605469 -6.894531 C 4.507812 -7.125 4.398438 -7.234375 4.15625 -7.234375 L 3.101562 -7.234375 C 2.859375 -7.234375 2.738281 -7.125 2.648438 -6.894531 L 0.207031 -0.308594 C 0.152344 -0.175781 0.152344 0 0.394531 0 L 1.550781 0 C 1.792969 0 1.878906 -0.0664062 1.96875 -0.328125 L 2.277344 -1.199219 L 4.96875 -1.199219 L 5.277344 -0.328125 C 5.367188 -0.0664062 5.453125 0 5.695312 0 L 6.851562 0 C 7.089844 0 7.089844 -0.175781 7.035156 -0.308594 Z M 3.628906 -5.167969 L 4.453125 -2.738281 L 2.804688 -2.738281 Z M 3.628906 -5.167969 "/></g></g></g><g fill="#737373" fill-opacity="1"><g transform="translate(91.951321, 137.999994)"><g><path d="M 6.367188 -7.234375 L 5.3125 -7.234375 C 5.113281 -7.234375 4.992188 -7.167969 4.992188 -6.914062 L 4.992188 -3.101562 L 2.660156 -6.859375 C 2.519531 -7.082031 2.441406 -7.234375 2.164062 -7.234375 L 1.132812 -7.234375 C 0.878906 -7.234375 0.8125 -7.113281 0.8125 -6.914062 L 0.8125 -0.320312 C 0.8125 -0.0664062 0.933594 0 1.132812 0 L 2.222656 0 C 2.417969 0 2.539062 -0.0664062 2.539062 -0.320312 L 2.539062 -4.144531 L 4.871094 -0.375 C 5.015625 -0.152344 5.089844 0 5.367188 0 L 6.367188 0 C 6.617188 0 6.683594 -0.121094 6.683594 -0.320312 L 6.683594 -6.914062 C 6.683594 -7.167969 6.5625 -7.234375 6.367188 -7.234375 Z M 6.367188 -7.234375 "/></g></g></g><g fill="#737373" fill-opacity="1"><g transform="translate(100.493049, 137.999994)"><g><path d="M 6.496094 -2.320312 L 6.496094 -4.914062 C 6.496094 -6.652344 4.847656 -7.398438 3.539062 -7.398438 C 2.230469 -7.398438 0.605469 -6.652344 0.605469 -4.914062 L 0.605469 -2.320312 C 0.605469 -0.582031 2.230469 0.164062 3.539062 0.164062 C 4.847656 0.164062 6.496094 -0.582031 6.496094 -2.320312 Z M 4.773438 -4.761719 L 4.773438 -2.472656 C 4.773438 -1.769531 4.265625 -1.363281 3.539062 -1.363281 C 2.824219 -1.363281 2.320312 -1.769531 2.320312 -2.472656 L 2.320312 -4.761719 C 2.320312 -5.464844 2.824219 -5.871094 3.539062 -5.871094 C 4.265625 -5.871094 4.773438 -5.464844 4.773438 -4.761719 Z M 4.773438 -4.761719 "/></g></g></g><g fill="#737373" fill-opacity="1"><g transform="translate(108.628064, 137.999994)"><g><path d="M 6.585938 -7.234375 L 5.421875 -7.234375 C 5.125 -7.234375 5.046875 -7.148438 4.957031 -6.882812 L 3.472656 -2.332031 L 1.980469 -6.882812 C 1.890625 -7.148438 1.8125 -7.234375 1.527344 -7.234375 L 0.308594 -7.234375 C 0.0976562 -7.234375 0.0546875 -7.058594 0.109375 -6.914062 L 2.472656 -0.328125 C 2.605469 -0.0429688 2.683594 0 2.925781 0 L 3.980469 0 C 4.222656 0 4.300781 -0.0429688 4.429688 -0.328125 L 6.785156 -6.914062 C 6.839844 -7.058594 6.792969 -7.234375 6.585938 -7.234375 Z M 6.585938 -7.234375 "/></g></g></g><g fill="#737373" fill-opacity="1"><g transform="translate(116.664144, 137.999994)"><g><path d="M 6.058594 -1.539062 L 2.550781 -1.539062 L 2.550781 -2.992188 L 5.496094 -2.992188 C 5.75 -2.992188 5.816406 -3.113281 5.816406 -3.308594 L 5.816406 -4.167969 C 5.816406 -4.363281 5.75 -4.484375 5.496094 -4.484375 L 2.550781 -4.484375 L 2.550781 -5.683594 L 5.871094 -5.683594 C 6.125 -5.683594 6.191406 -5.804688 6.191406 -6.003906 L 6.191406 -6.914062 C 6.191406 -7.113281 6.125 -7.234375 5.871094 -7.234375 L 1.132812 -7.234375 C 0.878906 -7.234375 0.8125 -7.113281 0.8125 -6.914062 L 0.8125 -0.320312 C 0.8125 -0.121094 0.878906 0 1.132812 0 L 6.058594 0 C 6.3125 0 6.378906 -0.121094 6.378906 -0.320312 L 6.378906 -1.21875 C 6.378906 -1.417969 6.3125 -1.539062 6.058594 -1.539062 Z M 6.058594 -1.539062 "/></g></g></g><g fill="#737373" fill-opacity="1"><g transform="translate(124.601291, 137.999994)"><g><path d="M 5.707031 -1.539062 L 2.539062 -1.539062 L 2.539062 -6.914062 C 2.539062 -7.167969 2.417969 -7.234375 2.222656 -7.234375 L 1.132812 -7.234375 C 0.933594 -7.234375 0.8125 -7.167969 0.8125 -6.914062 L 0.8125 -0.320312 C 0.8125 -0.121094 0.878906 0 1.132812 0 L 5.707031 0 C 5.960938 0 6.023438 -0.121094 6.023438 -0.320312 L 6.023438 -1.21875 C 6.023438 -1.417969 5.960938 -1.539062 5.707031 -1.539062 Z M 5.707031 -1.539062 "/></g></g></g><g fill="#737373" fill-opacity="1"><g transform="translate(136.067713, 137.999994)"><g><path d="M 7.035156 -0.308594 L 4.605469 -6.894531 C 4.507812 -7.125 4.398438 -7.234375 4.15625 -7.234375 L 3.101562 -7.234375 C 2.859375 -7.234375 2.738281 -7.125 2.648438 -6.894531 L 0.207031 -0.308594 C 0.152344 -0.175781 0.152344 0 0.394531 0 L 1.550781 0 C 1.792969 0 1.878906 -0.0664062 1.96875 -0.328125 L 2.277344 -1.199219 L 4.96875 -1.199219 L 5.277344 -0.328125 C 5.367188 -0.0664062 5.453125 0 5.695312 0 L 6.851562 0 C 7.089844 0 7.089844 -0.175781 7.035156 -0.308594 Z M 3.628906 -5.167969 L 4.453125 -2.738281 L 2.804688 -2.738281 Z M 3.628906 -5.167969 "/></g></g></g><g fill="#737373" fill-opacity="1"><g transform="translate(144.312648, 137.999994)"><g><path d="M 6.222656 -7.234375 L 5.132812 -7.234375 C 4.9375 -7.234375 4.816406 -7.167969 4.816406 -6.914062 L 4.816406 -2.453125 C 4.816406 -1.757812 4.355469 -1.363281 3.628906 -1.363281 C 2.902344 -1.363281 2.453125 -1.757812 2.453125 -2.453125 L 2.453125 -6.914062 C 2.453125 -7.167969 2.332031 -7.234375 2.132812 -7.234375 L 1.042969 -7.234375 C 0.847656 -7.234375 0.726562 -7.167969 0.726562 -6.914062 L 0.726562 -2.210938 C 0.726562 -0.484375 2.320312 0.164062 3.628906 0.164062 C 4.9375 0.164062 6.542969 -0.484375 6.542969 -2.210938 L 6.542969 -6.914062 C 6.542969 -7.167969 6.421875 -7.234375 6.222656 -7.234375 Z M 6.222656 -7.234375 "/></g></g></g><g fill="#737373" fill-opacity="1"><g transform="translate(152.623536, 137.999994)"><g><path d="M 5.707031 -7.234375 L 0.605469 -7.234375 C 0.351562 -7.234375 0.285156 -7.113281 0.285156 -6.914062 L 0.285156 -6.003906 C 0.285156 -5.804688 0.351562 -5.683594 0.605469 -5.683594 L 2.296875 -5.683594 L 2.296875 -0.320312 C 2.296875 -0.0664062 2.417969 0 2.617188 0 L 3.707031 0 C 3.902344 0 4.023438 -0.0664062 4.023438 -0.320312 L 4.023438 -5.683594 L 5.707031 -5.683594 C 5.960938 -5.683594 6.023438 -5.804688 6.023438 -6.003906 L 6.023438 -6.914062 C 6.023438 -7.113281 5.960938 -7.234375 5.707031 -7.234375 Z M 5.707031 -7.234375 "/></g></g></g><g fill="#737373" fill-opacity="1"><g transform="translate(159.978098, 137.999994)"><g><path d="M 6.398438 -7.234375 L 5.3125 -7.234375 C 5.113281 -7.234375 4.992188 -7.167969 4.992188 -6.914062 L 4.992188 -4.429688 L 2.539062 -4.429688 L 2.539062 -6.914062 C 2.539062 -7.167969 2.429688 -7.234375 2.222656 -7.234375 L 1.132812 -7.234375 C 0.933594 -7.234375 0.8125 -7.167969 0.8125 -6.914062 L 0.8125 -0.320312 C 0.8125 -0.0664062 0.933594 0 1.132812 0 L 2.222656 0 C 2.429688 0 2.539062 -0.0664062 2.539062 -0.320312 L 2.539062 -2.804688 L 4.992188 -2.804688 L 4.992188 -0.320312 C 4.992188 -0.0664062 5.113281 0 5.3125 0 L 6.398438 0 C 6.597656 0 6.71875 -0.0664062 6.71875 -0.320312 L 6.71875 -6.914062 C 6.71875 -7.167969 6.597656 -7.234375 6.398438 -7.234375 Z M 6.398438 -7.234375 "/></g></g></g><g fill="#737373" fill-opacity="1"><g transform="translate(168.552795, 137.999994)"><g><path d="M 6.058594 -1.539062 L 2.550781 -1.539062 L 2.550781 -2.992188 L 5.496094 -2.992188 C 5.75 -2.992188 5.816406 -3.113281 5.816406 -3.308594 L 5.816406 -4.167969 C 5.816406 -4.363281 5.75 -4.484375 5.496094 -4.484375 L 2.550781 -4.484375 L 2.550781 -5.683594 L 5.871094 -5.683594 C 6.125 -5.683594 6.191406 -5.804688 6.191406 -6.003906 L 6.191406 -6.914062 C 6.191406 -7.113281 6.125 -7.234375 5.871094 -7.234375 L 1.132812 -7.234375 C 0.878906 -7.234375 0.8125 -7.113281 0.8125 -6.914062 L 0.8125 -0.320312 C 0.8125 -0.121094 0.878906 0 1.132812 0 L 6.058594 0 C 6.3125 0 6.378906 -0.121094 6.378906 -0.320312 L 6.378906 -1.21875 C 6.378906 -1.417969 6.3125 -1.539062 6.058594 -1.539062 Z M 6.058594 -1.539062 "/></g></g></g><g fill="#737373" fill-opacity="1"><g transform="translate(176.489942, 137.999994)"><g><path d="M 6.367188 -7.234375 L 5.3125 -7.234375 C 5.113281 -7.234375 4.992188 -7.167969 4.992188 -6.914062 L 4.992188 -3.101562 L 2.660156 -6.859375 C 2.519531 -7.082031 2.441406 -7.234375 2.164062 -7.234375 L 1.132812 -7.234375 C 0.878906 -7.234375 0.8125 -7.113281 0.8125 -6.914062 L 0.8125 -0.320312 C 0.8125 -0.0664062 0.933594 0 1.132812 0 L 2.222656 0 C 2.417969 0 2.539062 -0.0664062 2.539062 -0.320312 L 2.539062 -4.144531 L 4.871094 -0.375 C 5.015625 -0.152344 5.089844 0 5.367188 0 L 6.367188 0 C 6.617188 0 6.683594 -0.121094 6.683594 -0.320312 L 6.683594 -6.914062 C 6.683594 -7.167969 6.5625 -7.234375 6.367188 -7.234375 Z M 6.367188 -7.234375 "/></g></g></g><g fill="#737373" fill-opacity="1"><g transform="translate(185.031674, 137.999994)"><g><path d="M 5.707031 -7.234375 L 0.605469 -7.234375 C 0.351562 -7.234375 0.285156 -7.113281 0.285156 -6.914062 L 0.285156 -6.003906 C 0.285156 -5.804688 0.351562 -5.683594 0.605469 -5.683594 L 2.296875 -5.683594 L 2.296875 -0.320312 C 2.296875 -0.0664062 2.417969 0 2.617188 0 L 3.707031 0 C 3.902344 0 4.023438 -0.0664062 4.023438 -0.320312 L 4.023438 -5.683594 L 5.707031 -5.683594 C 5.960938 -5.683594 6.023438 -5.804688 6.023438 -6.003906 L 6.023438 -6.914062 C 6.023438 -7.113281 5.960938 -7.234375 5.707031 -7.234375 Z M 5.707031 -7.234375 "/></g></g></g><g fill="#737373" fill-opacity="1"><g transform="translate(192.386242, 137.999994)"><g><path d="M 3.957031 -1.507812 L 3.265625 -1.507812 L 3.265625 -5.707031 L 3.925781 -5.707031 C 4.179688 -5.707031 4.242188 -5.828125 4.242188 -6.023438 L 4.242188 -6.914062 C 4.242188 -7.113281 4.179688 -7.234375 3.925781 -7.234375 L 0.867188 -7.234375 C 0.617188 -7.234375 0.550781 -7.113281 0.550781 -6.914062 L 0.550781 -6.023438 C 0.550781 -5.828125 0.617188 -5.707031 0.867188 -5.707031 L 1.539062 -5.707031 L 1.539062 -1.507812 L 0.847656 -1.507812 C 0.59375 -1.507812 0.527344 -1.386719 0.527344 -1.1875 L 0.527344 -0.320312 C 0.527344 -0.121094 0.59375 0 0.847656 0 L 3.957031 0 C 4.210938 0 4.277344 -0.121094 4.277344 -0.320312 L 4.277344 -1.1875 C 4.277344 -1.386719 4.210938 -1.507812 3.957031 -1.507812 Z M 3.957031 -1.507812 "/></g></g></g><g fill="#737373" fill-opacity="1"><g transform="translate(198.311821, 137.999994)"><g><path d="M 6.386719 -2.144531 C 6.386719 -2.40625 6.300781 -2.519531 6.058594 -2.519531 L 4.980469 -2.519531 C 4.738281 -2.519531 4.71875 -2.34375 4.683594 -2.121094 C 4.597656 -1.59375 4.125 -1.375 3.53125 -1.375 C 2.804688 -1.375 2.308594 -1.769531 2.308594 -2.472656 L 2.308594 -4.761719 C 2.308594 -5.453125 2.804688 -5.859375 3.53125 -5.859375 C 4.125 -5.859375 4.429688 -5.695312 4.660156 -5.332031 C 4.75 -5.199219 4.761719 -4.992188 4.992188 -4.992188 L 6.046875 -4.992188 C 6.300781 -4.992188 6.386719 -5.046875 6.386719 -5.3125 C 6.246094 -6.707031 4.894531 -7.398438 3.53125 -7.398438 C 2.222656 -7.398438 0.582031 -6.640625 0.582031 -4.914062 L 0.582031 -2.320312 C 0.582031 -0.59375 2.222656 0.164062 3.53125 0.164062 C 4.894531 0.164062 6.386719 -0.726562 6.386719 -2.144531 Z M 6.386719 -2.144531 "/></g></g></g><g fill="#737373" fill-opacity="1"><g transform="translate(206.303939, 137.999994)"><g><path d="M 7.035156 -0.308594 L 4.605469 -6.894531 C 4.507812 -7.125 4.398438 -7.234375 4.15625 -7.234375 L 3.101562 -7.234375 C 2.859375 -7.234375 2.738281 -7.125 2.648438 -6.894531 L 0.207031 -0.308594 C 0.152344 -0.175781 0.152344 0 0.394531 0 L 1.550781 0 C 1.792969 0 1.878906 -0.0664062 1.96875 -0.328125 L 2.277344 -1.199219 L 4.96875 -1.199219 L 5.277344 -0.328125 C 5.367188 -0.0664062 5.453125 0 5.695312 0 L 6.851562 0 C 7.089844 0 7.089844 -0.175781 7.035156 -0.308594 Z M 3.628906 -5.167969 L 4.453125 -2.738281 L 2.804688 -2.738281 Z M 3.628906 -5.167969 "/></g></g></g><g fill="#737373" fill-opacity="1"><g transform="translate(214.548881, 137.999994)"><g><path d="M 5.707031 -7.234375 L 0.605469 -7.234375 C 0.351562 -7.234375 0.285156 -7.113281 0.285156 -6.914062 L 0.285156 -6.003906 C 0.285156 -5.804688 0.351562 -5.683594 0.605469 -5.683594 L 2.296875 -5.683594 L 2.296875 -0.320312 C 2.296875 -0.0664062 2.417969 0 2.617188 0 L 3.707031 0 C 3.902344 0 4.023438 -0.0664062 4.023438 -0.320312 L 4.023438 -5.683594 L 5.707031 -5.683594 C 5.960938 -5.683594 6.023438 -5.804688 6.023438 -6.003906 L 6.023438 -6.914062 C 6.023438 -7.113281 5.960938 -7.234375 5.707031 -7.234375 Z M 5.707031 -7.234375 "/></g></g></g><g fill="#737373" fill-opacity="1"><g transform="translate(221.903449, 137.999994)"><g><path d="M 3.957031 -1.507812 L 3.265625 -1.507812 L 3.265625 -5.707031 L 3.925781 -5.707031 C 4.179688 -5.707031 4.242188 -5.828125 4.242188 -6.023438 L 4.242188 -6.914062 C 4.242188 -7.113281 4.179688 -7.234375 3.925781 -7.234375 L 0.867188 -7.234375 C 0.617188 -7.234375 0.550781 -7.113281 0.550781 -6.914062 L 0.550781 -6.023438 C 0.550781 -5.828125 0.617188 -5.707031 0.867188 -5.707031 L 1.539062 -5.707031 L 1.539062 -1.507812 L 0.847656 -1.507812 C 0.59375 -1.507812 0.527344 -1.386719 0.527344 -1.1875 L 0.527344 -0.320312 C 0.527344 -0.121094 0.59375 0 0.847656 0 L 3.957031 0 C 4.210938 0 4.277344 -0.121094 4.277344 -0.320312 L 4.277344 -1.1875 C 4.277344 -1.386719 4.210938 -1.507812 3.957031 -1.507812 Z M 3.957031 -1.507812 "/></g></g></g><g fill="#737373" fill-opacity="1"><g transform="translate(227.829027, 137.999994)"><g><path d="M 6.496094 -2.320312 L 6.496094 -4.914062 C 6.496094 -6.652344 4.847656 -7.398438 3.539062 -7.398438 C 2.230469 -7.398438 0.605469 -6.652344 0.605469 -4.914062 L 0.605469 -2.320312 C 0.605469 -0.582031 2.230469 0.164062 3.539062 0.164062 C 4.847656 0.164062 6.496094 -0.582031 6.496094 -2.320312 Z M 4.773438 -4.761719 L 4.773438 -2.472656 C 4.773438 -1.769531 4.265625 -1.363281 3.539062 -1.363281 C 2.824219 -1.363281 2.320312 -1.769531 2.320312 -2.472656 L 2.320312 -4.761719 C 2.320312 -5.464844 2.824219 -5.871094 3.539062 -5.871094 C 4.265625 -5.871094 4.773438 -5.464844 4.773438 -4.761719 Z M 4.773438 -4.761719 "/></g></g></g><g fill="#737373" fill-opacity="1"><g transform="translate(235.964048, 137.999994)"><g><path d="M 6.367188 -7.234375 L 5.3125 -7.234375 C 5.113281 -7.234375 4.992188 -7.167969 4.992188 -6.914062 L 4.992188 -3.101562 L 2.660156 -6.859375 C 2.519531 -7.082031 2.441406 -7.234375 2.164062 -7.234375 L 1.132812 -7.234375 C 0.878906 -7.234375 0.8125 -7.113281 0.8125 -6.914062 L 0.8125 -0.320312 C 0.8125 -0.0664062 0.933594 0 1.132812 0 L 2.222656 0 C 2.417969 0 2.539062 -0.0664062 2.539062 -0.320312 L 2.539062 -4.144531 L 4.871094 -0.375 C 5.015625 -0.152344 5.089844 0 5.367188 0 L 6.367188 0 C 6.617188 0 6.683594 -0.121094 6.683594 -0.320312 L 6.683594 -6.914062 C 6.683594 -7.167969 6.5625 -7.234375 6.367188 -7.234375 Z M 6.367188 -7.234375 "/></g></g></g><g fill="#737373" fill-opacity="1"><g transform="translate(248.529706, 137.999994)"><g><path d="M 4.222656 -4.199219 C 3.78125 -4.375 2.164062 -4.617188 2.164062 -5.289062 C 2.164062 -5.785156 2.769531 -5.925781 3.132812 -5.925781 C 3.464844 -5.925781 3.859375 -5.828125 4.066406 -5.628906 C 4.199219 -5.496094 4.253906 -5.410156 4.300781 -5.300781 C 4.355469 -5.15625 4.386719 -5.003906 4.597656 -5.003906 L 5.671875 -5.003906 C 5.925781 -5.003906 5.992188 -5.046875 5.992188 -5.3125 C 5.992188 -6.761719 4.464844 -7.398438 3.066406 -7.398438 C 1.691406 -7.34375 0.394531 -6.640625 0.394531 -5.210938 C 0.394531 -3.816406 1.417969 -3.375 2.527344 -3.023438 C 3.464844 -2.726562 4.441406 -2.714844 4.441406 -2.101562 C 4.441406 -1.484375 3.957031 -1.351562 3.363281 -1.351562 C 2.957031 -1.351562 2.507812 -1.453125 2.285156 -1.714844 C 2.144531 -1.878906 2.089844 -2.023438 2.078125 -2.164062 C 2.054688 -2.441406 1.933594 -2.472656 1.683594 -2.472656 L 0.617188 -2.472656 C 0.363281 -2.472656 0.296875 -2.417969 0.296875 -2.164062 C 0.296875 -0.625 1.878906 0.164062 3.253906 0.164062 C 4.949219 0.164062 6.179688 -0.582031 6.179688 -2.144531 C 6.179688 -3.640625 5.015625 -3.957031 4.222656 -4.199219 Z M 4.222656 -4.199219 "/></g></g></g><g fill="#737373" fill-opacity="1"><g transform="translate(256.225033, 137.999994)"><g><path d="M 6.320312 -7.234375 L 5.132812 -7.234375 C 4.882812 -7.234375 4.773438 -7.203125 4.628906 -6.90625 L 3.386719 -4.539062 L 2.101562 -6.90625 C 1.945312 -7.203125 1.835938 -7.234375 1.582031 -7.234375 L 0.320312 -7.234375 C 0.109375 -7.234375 0.0898438 -7.046875 0.144531 -6.925781 L 2.496094 -2.714844 L 2.496094 -0.320312 C 2.496094 -0.0664062 2.605469 0 2.816406 0 L 3.914062 0 C 4.113281 0 4.234375 -0.0664062 4.234375 -0.320312 L 4.234375 -2.714844 L 6.496094 -6.925781 C 6.554688 -7.046875 6.53125 -7.234375 6.320312 -7.234375 Z M 6.320312 -7.234375 "/></g></g></g><g fill="#737373" fill-opacity="1"><g transform="translate(263.909363, 137.999994)"><g><path d="M 4.222656 -4.199219 C 3.78125 -4.375 2.164062 -4.617188 2.164062 -5.289062 C 2.164062 -5.785156 2.769531 -5.925781 3.132812 -5.925781 C 3.464844 -5.925781 3.859375 -5.828125 4.066406 -5.628906 C 4.199219 -5.496094 4.253906 -5.410156 4.300781 -5.300781 C 4.355469 -5.15625 4.386719 -5.003906 4.597656 -5.003906 L 5.671875 -5.003906 C 5.925781 -5.003906 5.992188 -5.046875 5.992188 -5.3125 C 5.992188 -6.761719 4.464844 -7.398438 3.066406 -7.398438 C 1.691406 -7.34375 0.394531 -6.640625 0.394531 -5.210938 C 0.394531 -3.816406 1.417969 -3.375 2.527344 -3.023438 C 3.464844 -2.726562 4.441406 -2.714844 4.441406 -2.101562 C 4.441406 -1.484375 3.957031 -1.351562 3.363281 -1.351562 C 2.957031 -1.351562 2.507812 -1.453125 2.285156 -1.714844 C 2.144531 -1.878906 2.089844 -2.023438 2.078125 -2.164062 C 2.054688 -2.441406 1.933594 -2.472656 1.683594 -2.472656 L 0.617188 -2.472656 C 0.363281 -2.472656 0.296875 -2.417969 0.296875 -2.164062 C 0.296875 -0.625 1.878906 0.164062 3.253906 0.164062 C 4.949219 0.164062 6.179688 -0.582031 6.179688 -2.144531 C 6.179688 -3.640625 5.015625 -3.957031 4.222656 -4.199219 Z M 4.222656 -4.199219 "/></g></g></g><g fill="#737373" fill-opacity="1"><g transform="translate(271.60469, 137.999994)"><g><path d="M 5.707031 -7.234375 L 0.605469 -7.234375 C 0.351562 -7.234375 0.285156 -7.113281 0.285156 -6.914062 L 0.285156 -6.003906 C 0.285156 -5.804688 0.351562 -5.683594 0.605469 -5.683594 L 2.296875 -5.683594 L 2.296875 -0.320312 C 2.296875 -0.0664062 2.417969 0 2.617188 0 L 3.707031 0 C 3.902344 0 4.023438 -0.0664062 4.023438 -0.320312 L 4.023438 -5.683594 L 5.707031 -5.683594 C 5.960938 -5.683594 6.023438 -5.804688 6.023438 -6.003906 L 6.023438 -6.914062 C 6.023438 -7.113281 5.960938 -7.234375 5.707031 -7.234375 Z M 5.707031 -7.234375 "/></g></g></g><g fill="#737373" fill-opacity="1"><g transform="translate(278.959247, 137.999994)"><g><path d="M 6.058594 -1.539062 L 2.550781 -1.539062 L 2.550781 -2.992188 L 5.496094 -2.992188 C 5.75 -2.992188 5.816406 -3.113281 5.816406 -3.308594 L 5.816406 -4.167969 C 5.816406 -4.363281 5.75 -4.484375 5.496094 -4.484375 L 2.550781 -4.484375 L 2.550781 -5.683594 L 5.871094 -5.683594 C 6.125 -5.683594 6.191406 -5.804688 6.191406 -6.003906 L 6.191406 -6.914062 C 6.191406 -7.113281 6.125 -7.234375 5.871094 -7.234375 L 1.132812 -7.234375 C 0.878906 -7.234375 0.8125 -7.113281 0.8125 -6.914062 L 0.8125 -0.320312 C 0.8125 -0.121094 0.878906 0 1.132812 0 L 6.058594 0 C 6.3125 0 6.378906 -0.121094 6.378906 -0.320312 L 6.378906 -1.21875 C 6.378906 -1.417969 6.3125 -1.539062 6.058594 -1.539062 Z M 6.058594 -1.539062 "/></g></g></g><g fill="#737373" fill-opacity="1"><g transform="translate(286.896388, 137.999994)"><g><path d="M 7.300781 -7.246094 L 6.246094 -7.246094 C 5.882812 -7.246094 5.828125 -7.003906 5.75 -6.871094 L 4.234375 -4.167969 L 2.726562 -6.871094 C 2.640625 -7.003906 2.59375 -7.246094 2.222656 -7.246094 L 1.132812 -7.246094 C 0.878906 -7.246094 0.8125 -7.125 0.8125 -6.925781 L 0.8125 -0.320312 C 0.8125 -0.0664062 0.933594 0 1.132812 0 L 2.222656 0 C 2.417969 0 2.539062 -0.0664062 2.539062 -0.320312 L 2.539062 -4.046875 L 3.648438 -2.121094 C 3.707031 -2.035156 3.792969 -1.890625 3.957031 -1.890625 L 4.507812 -1.890625 C 4.671875 -1.890625 4.773438 -2.035156 4.828125 -2.121094 L 5.925781 -4.046875 L 5.925781 -0.320312 C 5.925781 -0.0664062 6.046875 0 6.246094 0 L 7.300781 0 C 7.5 0 7.621094 -0.0664062 7.621094 -0.320312 L 7.621094 -6.925781 C 7.621094 -7.125 7.554688 -7.246094 7.300781 -7.246094 Z M 7.300781 -7.246094 "/></g></g></g></svg>